<svg xmlns="http://www.w3.org/2000/svg" xmlns:svg="http://www.w3.org/2000/svg" id="svg38234" width="1500" height="500" version="1.1" viewBox="0 0 396.875 132.292"><metadata id="metadata38231"/><g id="layer1" transform="translate(184.0744,-205.15181)"><rect style="opacity:1;fill:#ff686b;fill-opacity:1;stroke:none;stroke-width:3;stroke-linecap:round;stroke-linejoin:round;stroke-miterlimit:4;stroke-dasharray:none;stroke-dashoffset:0;stroke-opacity:1;paint-order:markers fill stroke" id="rect38790" width="396.875" height="132.292" x="-184.074" y="205.152"/><text style="font-style:normal;font-variant:normal;font-weight:400;font-stretch:normal;font-size:20.8077px;line-height:1.25;font-family:'Merriweather Sans';-inkscape-font-specification:'Merriweather Sans';text-align:start;letter-spacing:0;word-spacing:0;text-anchor:start;fill:#fff;fill-opacity:1;stroke:none;stroke-width:.433494" id="text38794" x="-174.254" y="225.446" xml:space="preserve"><tspan style="font-style:normal;font-variant:normal;font-weight:400;font-stretch:normal;font-size:20.8077px;font-family:'Sofia Pro';-inkscape-font-specification:'Sofia Pro';text-align:start;text-anchor:start;fill:#fff;fill-opacity:1;stroke-width:.433494" id="tspan50078" x="-174.254" y="225.446">CodeDay Seattle</tspan></text><text style="font-style:normal;font-variant:normal;font-weight:800;font-stretch:normal;font-size:12.7px;line-height:.65;font-family:'Sofia Pro';-inkscape-font-specification:'Sofia Pro Ultra-Bold';text-align:end;letter-spacing:0;word-spacing:0;text-anchor:end;fill:#fff;fill-opacity:1;stroke:none;stroke-width:.264583" id="text6018-6" x="209.325" y="323.998" xml:space="preserve"><tspan style="font-size:6.58514px;line-height:.65;text-align:end;text-anchor:end;fill:#fff;fill-opacity:1;stroke-width:.264583" id="tspan54198" x="209.325" y="323.998">Use code &quot;NSC&quot; for 100% off</tspan></text><text style="font-style:normal;font-variant:normal;font-weight:400;font-stretch:normal;font-size:17.2712px;line-height:1.25;font-family:'Merriweather Sans';-inkscape-font-specification:'Merriweather Sans';text-align:end;letter-spacing:0;word-spacing:0;text-anchor:end;fill:#fff;fill-opacity:1;stroke:none;stroke-width:.359816" id="text20960" x="208.011" y="275.45" xml:space="preserve"><tspan id="tspan20958" x="208.011" y="275.45" style="font-style:normal;font-variant:normal;font-weight:700;font-stretch:normal;font-size:16.8781px;font-family:'Sofia Pro';-inkscape-font-specification:'Sofia Pro Bold';fill:#fff;fill-opacity:1;stroke-width:.359816">{{short_month}}. {{day}}-{{day+1}}, {{year}}</tspan></text><text style="font-style:normal;font-variant:normal;font-weight:400;font-stretch:normal;font-size:6.33916px;line-height:1.25;font-family:'Merriweather Sans';-inkscape-font-specification:'Merriweather Sans';text-align:end;letter-spacing:0;word-spacing:0;text-anchor:end;fill:#fff;fill-opacity:1;stroke:none;stroke-width:.132066" id="text20964" x="207.698" y="285.972" xml:space="preserve"><tspan id="tspan20962" x="207.698" y="285.972" style="font-style:normal;font-variant:normal;font-weight:700;font-stretch:normal;font-size:6.35px;font-family:'Sofia Pro';-inkscape-font-specification:'Sofia Pro Bold';fill:#fff;fill-opacity:1;stroke-width:.132066">{{current_event.venue[&apos;name&apos;]}}</tspan></text><g id="g3408" transform="matrix(0.33072917,0,0,-0.33072917,187.39256,223.7205)" style="fill:#fff;fill-opacity:1"><path id="path3410" d="m 0,0 -7.282,-6.859 c 2.445,-2.487 7.949,-7.311 7.949,-7.311 0,0 11.596,-10.159 16.598,-17.349 l 4.206,-6.044 4.067,6.138 c 4.831,7.291 16.664,17.785 16.664,17.785 0,0 5.023,4.461 7.291,6.731 L 42.071,-0.18 21.292,-20.368 Z" style="fill:#fff;fill-opacity:1;fill-rule:nonzero;stroke:none"/></g><g id="g3412" transform="matrix(0.33072917,0,0,-0.33072917,199.87074,210.44355)" style="fill:#fff;fill-opacity:1"><path id="path3414" d="m 0,0 c -2.705,0 -5.342,-0.489 -7.814,-1.389 v 0.006 C -7.846,-1.395 -7.878,-1.409 -7.91,-1.421 -8.062,-1.477 -8.211,-1.54 -8.362,-1.6 c -0.309,-0.121 -0.616,-0.247 -0.919,-0.381 -0.172,-0.076 -0.342,-0.156 -0.512,-0.236 -0.289,-0.137 -0.575,-0.28 -0.858,-0.428 -0.155,-0.082 -0.311,-0.162 -0.465,-0.247 -0.367,-0.202 -0.727,-0.415 -1.082,-0.638 -0.059,-0.037 -0.121,-0.07 -0.179,-0.107 -0.16,-0.102 -0.312,-0.216 -0.469,-0.322 v -12.777 l 3.876,3.129 c 0.368,0.348 0.752,0.678 1.156,0.981 2.223,1.667 4.955,2.626 7.814,2.626 7.221,0 13.095,-5.873 13.095,-13.09 0,-4.703 -1.529,-8.455 -4.096,-11.974 l 7.441,-6.745 c 3.975,5.131 6.655,11.012 6.655,18.719 C 23.095,-10.358 12.735,0 0,0" style="fill:#fff;fill-opacity:1;fill-rule:nonzero;stroke:none"/></g><g id="g3416" transform="matrix(0.33072917,0,0,-0.33072917,192.0351,214.96256)" style="fill:#fff;fill-opacity:1"><path id="path3418" d="M 0,0 3.82,-3.083 V 9.704 C 3.732,9.763 3.648,9.825 3.56,9.883 3.433,9.966 3.306,10.05 3.178,10.131 2.82,10.354 2.458,10.568 2.089,10.772 1.905,10.874 1.717,10.968 1.53,11.065 c -0.245,0.127 -0.491,0.252 -0.74,0.37 -0.209,0.099 -0.42,0.195 -0.632,0.288 -0.239,0.104 -0.48,0.203 -0.722,0.299 -0.215,0.086 -0.43,0.173 -0.648,0.253 -0.04,0.014 -0.078,0.032 -0.118,0.046 v -0.007 c -2.438,0.873 -5.034,1.35 -7.696,1.35 -12.735,0 -23.096,-10.359 -23.096,-23.091 0,-7.704 2.478,-13.554 6.207,-18.589 l 7.357,6.929 c -2.248,3.363 -3.564,7.042 -3.564,11.66 0,7.219 5.875,13.091 13.096,13.091 2.808,0 5.495,-0.925 7.696,-2.539 C -0.922,0.826 -0.534,0.498 -0.161,0.153 -0.12,0.115 -0.078,0.078 -0.037,0.039 -0.024,0.027 -0.013,0.012 0,0" style="fill:#fff;fill-opacity:1;fill-rule:nonzero;stroke:none"/></g><text id="text955" x="209.325" y="316.589" xml:space="preserve" style="font-style:normal;font-variant:normal;font-weight:800;font-stretch:normal;font-size:12.7px;line-height:.65;font-family:'Sofia Pro';-inkscape-font-specification:'Sofia Pro Ultra-Bold';text-align:end;letter-spacing:0;word-spacing:0;text-anchor:end;fill:#fff;fill-opacity:1;stroke:none;stroke-width:.264583"><tspan id="tspan951" x="209.325" y="316.589" style="font-size:6.58514px;line-height:.65;text-align:end;text-anchor:end;fill:#fff;fill-opacity:1;stroke-width:.264583">codeday.org/seattle</tspan></text></g></svg>